# xmcd CD database file
#
# Track frame offsets:
#	150
#	26979
#	51751
#	70956
#	90456
#	123999
#	149636
#	171632
#	189192
#	209341
#	230362
#	253724
#	265264
#	288533
#
# Disc length: 4688 seconds
#
# Revision: 0
# Processed by: cddbd v1.5.1PL2 Copyright (c) Steve Scherf et al.
# Submitted via: CDex 1.51
#
DISCID=d9124e0e
DTITLE=Aa. Vv. - Extralounge Vol.1
DYEAR=2005
DGENRE=Lounge
TTITLE0=Tempo Rei - Um Samba
TTITLE1=Asaf - Knife
TTITLE2=Asaf - Mmc
TTITLE3=The Berto Mei Mel Inc - My Jazz
TTITLE4=Cowboys - Ameba
TTITLE5=Willflor - Fantasy
TTITLE6=Asaf - Break
TTITLE7=Asaf - Asaf
TTITLE8=Vision Of Flor - Tulz
TTITLE9=Cosmic Tuareg - Sahara
TTITLE10=Asaf - Centoquaranta
TTITLE11=Vrs - Piano Hannon
TTITLE12=Williamc - I Can't Stop
TTITLE13=Various Artist - Medley Track
EXTD=YEAR: 2005
EXTT0=
EXTT1=
EXTT2=
EXTT3=
EXTT4=
EXTT5=
EXTT6=
EXTT7=
EXTT8=
EXTT9=
EXTT10=
EXTT11=
EXTT12=
EXTT13=
PLAYORDER=
